<?xml version="1.0" encoding="UTF-8"?>
<svg version="1.1" xmlns="http://www.w3.org/2000/svg" width="812" height="712">
<path d="M0 0 C0.66 0 1.32 0 2 0 C2.268125 0.61746094 2.53625 1.23492187 2.8125 1.87109375 C9.26397374 15.81391693 18.88253202 22.9940095 33.06640625 28.23828125 C41.15799519 30.33929303 49.48698867 30.14368078 57.78570557 30.13130188 C59.05264684 30.13341759 60.31958812 30.13553331 61.62492156 30.13771313 C64.39373879 30.14228571 67.16253374 30.14373581 69.93135452 30.14274788 C74.43838622 30.14114673 78.94539601 30.14637539 83.4524231 30.15237427 C89.99855798 30.16047025 96.54468899 30.16542538 103.09082794 30.16866493 C113.45605594 30.17418057 123.82125138 30.19109872 134.1864624 30.21000671 C137.73906321 30.21636298 141.2916641 30.22267154 144.84426498 30.22898388 C145.73206869 30.23056764 146.61987239 30.2321514 147.53457923 30.23378316 C157.63177444 30.25170533 167.72897195 30.2679371 177.82617188 30.28295898 C179.20988254 30.28502279 179.20988254 30.28502279 180.62154695 30.28712829 C195.54446245 30.309022 210.46736945 30.31980636 225.39029816 30.32732973 C240.74420074 30.33542653 256.09803123 30.35880037 271.45189261 30.3952834 C280.902541 30.41720071 290.3530407 30.42700628 299.80371317 30.42078307 C306.2948854 30.41758622 312.78593152 30.42908381 319.27706471 30.45167748 C323.01036042 30.46422961 326.74337486 30.47065795 330.47668076 30.45926094 C374.97491813 30.33626415 410.56184732 42.70917748 443 74 C445.2607022 76.42611944 447.45760922 78.89792095 449.64453125 81.390625 C452.21146804 84.2342631 454.89680368 86.93810483 457.625 89.625 C461.30461828 93.26384689 464.77410584 96.97124461 468.125 100.91015625 C470.47597155 103.53050996 472.98513002 105.97669508 475.5 108.4375 C478.70781968 111.58513948 481.70237256 114.7516618 484.375 118.375 C487.90232375 123.12069886 492.03194061 127.13877908 496.23950195 131.27075195 C499.71387265 134.68904403 502.97605722 138.19120963 506.12890625 141.91015625 C509.14150691 145.27496075 512.38572042 148.40545188 515.59790039 151.57836914 C518.93059062 154.88599763 522.05208116 158.29656607 525.09375 161.875 C527.62250461 164.69393956 530.30646246 167.33938576 533 170 C536.26382615 173.22398087 539.46830141 176.43517847 542.4375 179.9375 C545.04918811 183.01647544 547.83445784 185.8512459 550.71142578 188.6784668 C562.268888 200.03812804 571.27392485 210.23834313 572.16796875 227.18359375 C572.20397727 233.18261359 572.10107663 238.35335655 570 244 C567.94850258 241.32884207 566.10223692 238.60127143 564.3125 235.75 C557.55429009 225.71956679 548.49805935 218.12300389 536.4518429 215.43043655 C528.85792298 214.09799872 521.53351379 213.71544041 513.83334351 213.74171448 C511.92591163 213.73620092 511.92591163 213.73620092 509.97994578 213.73057598 C506.48448667 213.72068443 502.98912897 213.72294437 499.4936626 213.72730291 C495.71025105 213.72979591 491.92686504 213.72068926 488.14346313 213.71292114 C481.59573287 213.7009145 475.04802687 213.69577021 468.5002861 213.69503975 C459.01392787 213.69370899 449.5276281 213.67855204 440.0412906 213.65954458 C424.62177259 213.62874541 409.2022531 213.60456197 393.78271484 213.58666992 C392.40036854 213.5850609 392.40036854 213.5850609 390.99009605 213.58341938 C380.71601423 213.57160734 370.44193183 213.5614001 360.16784668 213.55297852 C356.44506834 213.54990458 352.72229002 213.54681577 348.99951172 213.54370117 C348.08089904 213.54293583 347.16228636 213.54217049 346.21583693 213.54138196 C330.858477 213.52826702 315.50115942 213.50358182 300.1438309 213.46995777 C290.6906899 213.44975226 281.23763971 213.43936665 271.78447695 213.44194698 C265.29758299 213.44298787 258.81076054 213.43325242 252.32389157 213.41530795 C248.59098706 213.40533798 244.85824089 213.40005292 241.12532806 213.40807533 C222.34062638 213.44454174 204.28087515 213.12576206 186.375 206.8125 C185.50093506 206.51134277 184.62687012 206.21018555 183.72631836 205.89990234 C155.27890012 195.79184078 132.11861655 176.93138242 112.80078125 154.01953125 C109.81721276 150.67353361 106.58999107 147.57056243 103.40161133 144.42114258 C100.07352759 141.11809379 96.95318107 137.71576082 93.921875 134.13671875 C90.83218461 130.70163615 87.50549371 127.49838306 84.17382812 124.29882812 C82.01564699 122.19116359 80.14163695 120.24464565 78.625 117.625 C76.11299704 113.56714907 72.66226119 110.49701975 69.25 107.1875 C64.51907746 102.57573316 59.9836829 97.90931157 55.67480469 92.8996582 C53.08437499 89.96144633 50.30039345 87.23621073 47.5 84.5 C43.4646327 80.51478981 39.60576993 76.48480851 35.9375 72.15625 C32.69909688 68.55222072 29.21332611 65.19399652 25.76879883 61.78833008 C22.21506109 58.25928179 18.8392266 54.65071846 15.61328125 50.81640625 C13.80937571 48.78537459 11.86057118 46.97795418 9.875 45.125 C2.81784405 38.16358066 -1.01897322 28.71374853 -1.23046875 18.828125 C-1.22652372 16.96869902 -1.21199799 15.10926878 -1.1875 13.25 C-1.18685547 12.30511719 -1.18621094 11.36023438 -1.18554688 10.38671875 C-1.14097059 3.42291176 -1.14097059 3.42291176 0 0 Z " fill="#D255F8" transform="translate(128,238)"/>
<path d="M0 0 C3.45606428 0.07732842 6.91219969 0.07582571 10.36899328 0.08412099 C16.16808345 0.10885249 21.96455684 0.18470794 27.76257849 0.29736257 C35.90370271 0.45539616 44.04345149 0.51530459 52.1858747 0.55810082 C57.86922099 0.5917434 63.55236714 0.64930099 69.23546886 0.71103907 C70.60158771 0.72574073 71.96771408 0.73976028 73.33384705 0.75308609 C77.8318132 0.79781615 82.32869193 0.87022705 86.82605505 0.95556569 C88.49563772 0.97237889 88.49563772 0.97237889 90.19894934 0.98953176 C102.54368496 1.2741378 113.61331799 3.47547123 122.50134802 12.52221608 C129.54116234 20.8596233 132.25623622 29.64997302 131.84509802 40.50659108 C131.08803388 47.80279675 128.74222372 51.81654443 123.39587927 56.76440358 C121.60452983 58.45060044 120.04972163 60.19725864 118.47009802 62.08080983 C115.01867818 66.09572679 111.29319637 69.79697128 107.53259802 73.51830983 C103.30079968 77.70615856 99.21448585 81.91485874 95.36853552 86.46362233 C92.37039509 89.818988 89.13474052 92.93574744 85.93445349 96.09692311 C83.18901635 98.8217114 80.53974802 101.5687216 78.03259802 104.51830983 C74.55649225 108.60784603 70.75010146 112.32791523 66.93494177 116.09643483 C64.18934316 118.82138985 61.5398985 121.56854456 59.03259802 124.51830983 C55.55649225 128.60784603 51.75010146 132.32791523 47.93494177 136.09643483 C45.18934316 138.82138985 42.5398985 141.56854456 40.03259802 144.51830983 C36.55984368 148.60390317 32.75757312 152.32072326 28.9459281 156.0854485 C26.09357617 158.91623595 23.34269532 161.78196647 20.72009802 164.83080983 C3.7457306 184.55996719 -20.08125063 198.66673207 -45.15490198 205.39330983 C-45.86549768 205.58441335 -46.57609339 205.77551686 -47.30822229 205.97241139 C-60.14060889 209.15308841 -72.98251857 209.8113036 -86.13317347 209.74536061 C-87.74127683 209.74479478 -89.3493807 209.7451164 -90.95748377 209.74624562 C-95.27262025 209.74681344 -99.58764283 209.73515298 -103.90275311 209.72109771 C-108.43105632 209.70849383 -112.95936287 209.70741231 -117.48768091 209.70504689 C-126.04016233 209.69886025 -134.59259188 209.68248802 -143.14505059 209.66234791 C-152.89127583 209.63990066 -162.6375037 209.6289734 -172.38374841 209.61895704 C-192.41166175 209.59811892 -212.43952858 209.56299841 -232.46740198 209.51830983 C-232.46740198 208.52830983 -232.46740198 207.53830983 -232.46740198 206.51830983 C-231.34205042 206.11612233 -231.34205042 206.11612233 -230.19396448 205.70580983 C-217.16336356 200.71676364 -209.0201662 192.23925282 -199.80333948 182.14330983 C-196.52523112 178.55573618 -193.12081701 175.1194566 -189.62755823 171.74096608 C-187.74116924 169.79999802 -185.97922486 167.81384817 -184.21349573 165.76440358 C-179.86691813 160.75920091 -175.15806176 156.1574244 -170.42833948 151.51830983 C-166.46444716 147.60033132 -162.69199552 143.59163781 -159.07140589 139.35327077 C-155.66157585 135.45246673 -152.06482609 131.75631352 -147.96740198 128.58080983 C-145.86679403 126.84780827 -144.33398154 125.26564758 -142.59240198 123.20580983 C-138.93682662 118.91413214 -134.97202824 114.97961916 -130.96740198 111.01830983 C-126.5801401 106.67390471 -122.31558912 102.32781685 -118.33458948 97.60424733 C-115.12391045 94.0174218 -111.65346218 90.68540156 -108.231318 87.3017571 C-104.72286639 83.81763805 -101.40556489 80.24691375 -98.20568323 76.47534108 C-95.3240848 73.23111453 -92.20016654 70.23179111 -89.09240198 67.20580983 C-87.02285121 65.08698404 -85.08524723 62.94693629 -83.15490198 60.70580983 C-78.83108523 55.71751042 -74.1382592 51.1380012 -69.42833948 46.51830983 C-65.44646584 42.58255828 -61.67968019 38.54147921 -58.02599573 34.29955983 C-56.10252656 32.10130936 -54.06341811 30.05175832 -51.96740198 28.01830983 C-49.28414105 25.3710055 -46.71483298 22.7073404 -44.27990198 19.83080983 C-43.45714273 18.92884122 -43.45714273 18.92884122 -42.61776209 18.00865102 C-40.94436348 16.07068097 -39.5081353 14.16663909 -38.03481531 12.08644032 C-27.79803121 -1.20834733 -15.75813823 -0.4183389 0 0 Z " fill="#4BC7EC" transform="translate(556.4674019813538,461.48169016838074)"/>
<path d="M0 0 C1.55515625 -0.00299894 3.11031175 -0.00640314 4.66546631 -0.01017761 C8.85071096 -0.0189366 13.03593513 -0.02135197 17.22118807 -0.0219934 C19.83777228 -0.02270731 22.45435137 -0.02484782 25.0709343 -0.02749062 C34.20256631 -0.03670964 43.3341838 -0.0408289 52.46582031 -0.04003906 C60.97752706 -0.03943575 69.48917095 -0.0500457 78.00086176 -0.06578273 C85.31997336 -0.07883293 92.63906431 -0.08422419 99.95818746 -0.08358365 C104.32544577 -0.08332838 108.69264786 -0.08619708 113.05989456 -0.0967617 C117.1557668 -0.10640289 121.25152847 -0.1065495 125.34740448 -0.09924507 C126.85270473 -0.09819499 128.35801174 -0.10058701 129.86330032 -0.10660553 C131.9113454 -0.11426699 133.95942782 -0.10850798 136.00747681 -0.10197449 C137.15519373 -0.10251925 138.30291065 -0.10306402 139.48540688 -0.1036253 C142.16552734 0.14526367 142.16552734 0.14526367 144.16552734 2.14526367 C143.12654297 2.61834961 142.08755859 3.09143555 141.01708984 3.57885742 C132.96406109 7.34829844 126.04024746 11.10791874 119.75830078 17.52612305 C117.72253947 19.59558488 115.65007341 21.62617481 113.57958984 23.66088867 C106.79488194 30.36198796 100.05587701 37.02627602 93.83422852 44.25830078 C91.08726388 47.36456116 88.12736248 50.24577432 85.16552734 53.14526367 C80.9097729 57.35203101 76.80150778 61.58576275 72.93505859 66.15698242 C70.16454993 69.26998223 67.17245935 72.16075175 64.20507812 75.08398438 C61.62607651 77.63870576 59.17640465 80.2322109 56.85302734 83.02026367 C53.572944 86.88011962 49.89788567 90.2338329 46.16552734 93.64526367 C41.83978363 97.59944357 37.75770746 101.54602206 34.00146484 106.05541992 C31.51676801 108.88374505 28.84478892 111.50234075 26.16552734 114.14526367 C22.88062458 117.38951915 19.65815958 120.62451986 16.66552734 124.14526367 C13.6728665 127.66604114 10.45019444 130.90073303 7.16552734 134.14526367 C3.94342455 137.3281383 0.77500225 140.49216552 -2.14697266 143.95776367 C-6.26013171 148.802151 -10.84684148 153.18163858 -15.35839844 157.6496582 C-19.08416108 161.35319407 -22.64627496 165.10809896 -26.03369141 169.12573242 C-29.01382245 172.46787505 -32.23703279 175.56747855 -35.421875 178.71313477 C-38.86647285 182.13167829 -42.11280616 185.65613958 -45.26025391 189.35229492 C-47.41300071 191.80418272 -49.73792286 194.05948678 -52.06494141 196.34448242 C-54.61639017 198.94098988 -56.98341571 201.68487926 -59.35400391 204.44604492 C-62.5488212 208.11291965 -62.5488212 208.11291965 -65.05724525 208.39694595 C-65.98892714 208.3977 -66.92060902 208.39845406 -67.88052368 208.39923096 C-68.94872345 208.40487061 -70.01692322 208.41051025 -71.11749268 208.4163208 C-72.88319611 208.41024811 -72.88319611 208.41024811 -74.68457031 208.40405273 C-75.92046906 208.40755737 -77.1563678 208.41106201 -78.42971802 208.41467285 C-81.82680795 208.42198442 -85.22365531 208.42024471 -88.62073183 208.41391468 C-92.17777111 208.40885612 -95.73479992 208.41354636 -99.2918396 208.41668701 C-105.27237815 208.42032992 -111.25286738 208.41552205 -117.23339844 208.40600586 C-124.13497381 208.39515048 -131.03643075 208.39862425 -137.93800318 208.40965867 C-143.86764142 208.418758 -149.79724414 208.42000302 -155.72688711 208.41478133 C-159.26617264 208.4116723 -162.80540269 208.41122222 -166.3446846 208.41785431 C-170.29917176 208.42474576 -174.2535284 208.41517186 -178.20800781 208.40405273 C-179.37299805 208.4081012 -180.53798828 208.41214966 -181.73828125 208.4163208 C-189.31718795 208.37693122 -196.16484265 207.80848427 -203.02197266 204.27026367 C-203.94042969 203.81006836 -203.94042969 203.81006836 -204.87744141 203.34057617 C-213.62028865 198.00063354 -218.90752233 189.31134106 -221.40087891 179.47729492 C-222.82889102 171.79690542 -221.94624766 163.82694318 -217.53369141 157.18823242 C-215.72775017 155.05964163 -213.82082963 153.10789283 -211.83447266 151.14526367 C-210.80013771 150.11058782 -209.7663249 149.07538986 -208.73291016 148.03979492 C-207.02460582 146.3312421 -205.3141384 144.62513799 -203.59692383 142.92553711 C-200.13070979 139.48676538 -196.86373657 135.96033058 -193.70556641 132.23510742 C-190.69296574 128.87030292 -187.44875223 125.7398118 -184.23657227 122.56689453 C-181.49105439 119.84202288 -178.8416979 117.09494042 -176.33447266 114.14526367 C-172.85903716 110.05651603 -169.05347028 106.33709683 -165.23901367 102.56933594 C-161.88386372 99.23944037 -158.73721814 95.80594968 -155.67431641 92.20385742 C-153.32952176 89.58027615 -150.83816424 87.11536556 -148.33447266 84.64526367 C-145.26043496 81.61241221 -142.25448087 78.56587037 -139.45947266 75.27026367 C-135.78688663 70.95896704 -131.76378814 67.01888444 -127.71582031 63.0637207 C-124.84269941 60.23619098 -122.10542605 57.35005843 -119.47119141 54.29760742 C-93.21087495 23.94251118 -59.87617928 3.59997838 -19.29802322 0.35111046 C-12.86914183 -0.03097277 -6.43757336 -0.00250517 0 0 Z " fill="#4BC7EC" transform="translate(359.83447265625,48.854736328125)"/>
<path d="M0 0 C2.49780273 2.14135742 2.49780273 2.14135742 4.93359375 4.60546875 C6.2784082 5.95801758 6.2784082 5.95801758 7.65039062 7.33789062 C8.57013672 8.27826172 9.48988281 9.21863281 10.4375 10.1875 C11.35337891 11.10853516 12.26925781 12.02957031 13.21289062 12.97851562 C17.77256087 17.59055825 22.1801254 22.27445491 26.40649414 27.19262695 C28.96919627 30.09927378 31.72964104 32.79314497 34.5 35.5 C38.55704197 39.50655128 42.439992 43.5588933 46.12890625 47.91015625 C48.64383494 50.71910583 51.31835808 53.35108098 54 56 C57.22209967 59.18287752 60.39052486 62.34690158 63.3125 65.8125 C67.47002796 70.72688467 72.13988799 75.15858725 76.7590332 79.6340332 C81.24954147 84.04201011 84.62806881 87.43780736 85.5625 93.875 C85.37188837 98.13812407 83.69634308 100.28441566 80.89355469 103.3742981 C77.54528094 106.24894177 73.78714762 107.23908902 69.59375 108.40234375 C68.66413956 108.68108841 67.73452911 108.95983307 66.77674866 109.24702454 C63.69068512 110.16645529 60.5958541 111.0516494 57.5 111.9375 C55.27660503 112.59315261 53.05388004 113.25108091 50.83178711 113.91113281 C46.18310323 115.28772435 41.53070458 116.65049127 36.87451172 118.00146484 C30.54594883 119.83803362 24.22633556 121.70336929 17.91015625 123.58203125 C11.63781318 125.44661263 5.36504451 127.30958511 -0.91137695 129.16040039 C-16.02178484 133.61821457 -31.11582849 138.12867781 -46.203125 142.6640625 C-48.18876539 143.2607865 -50.17440688 143.85750686 -52.16004944 144.45422363 C-60.10104841 146.84098328 -68.04195884 149.22802869 -75.98117065 151.62072754 C-95.41661375 157.47792074 -114.85806233 163.29285867 -134.3891201 168.82394981 C-144.77020082 171.7651444 -155.11512163 174.80823113 -165.4375 177.94921875 C-166.74924995 178.34768438 -168.06100225 178.74614231 -169.37275696 179.14459229 C-174.60421346 180.73509355 -179.83459897 182.32898734 -185.06152344 183.93432617 C-187.7200128 184.75050779 -190.37981598 185.56211118 -193.04125977 186.36860657 C-195.49964084 187.11377399 -197.95598069 187.86571954 -200.40991211 188.62541199 C-202.04198608 189.11767021 -202.04198608 189.11767021 -203.70703125 189.61987305 C-204.6606958 189.91169968 -205.61436035 190.20352631 -206.59692383 190.50419617 C-209 191 -209 191 -212 190 C-207.75900253 184.89538123 -203.21523909 180.16149652 -198.5 175.5 C-195.05058755 172.08932867 -191.63879842 168.70378214 -188.5 165 C-184.83610259 160.67660106 -180.78628354 156.76062019 -176.76000977 152.77954102 C-173.29613554 149.33963479 -170.02875066 145.8144615 -166.87109375 142.08984375 C-163.85780378 138.72426936 -160.6127901 135.59310392 -157.39990234 132.41943359 C-154.6757179 129.71571251 -152.04649806 126.99250269 -149.5625 124.0625 C-145.87366317 119.72109253 -141.80819647 115.77940467 -137.75805664 111.77978516 C-134.87807303 108.92260919 -132.10269656 106.05422913 -129.5 102.9375 C-125.93407097 98.72078892 -121.84212246 95.12457159 -117.76000977 91.42163086 C-114.2092597 88.17901854 -110.97575151 84.84590182 -107.89453125 81.1484375 C-104.77126494 77.60658911 -101.37433586 74.33417857 -97.99780273 71.03515625 C-95.13887657 68.29365647 -95.13887657 68.29365647 -93 65 C-92.34 65 -91.68 65 -91 65 C-90.73662842 64.40993164 -90.47325684 63.81986328 -90.2019043 63.21191406 C-88.94798348 60.90427185 -87.64804739 59.43272606 -85.76953125 57.609375 C-85.13515137 56.98659668 -84.50077148 56.36381836 -83.84716797 55.72216797 C-82.84000732 54.74594482 -82.84000732 54.74594482 -81.8125 53.75 C-80.43433998 52.39511643 -79.05800937 51.03836929 -77.68359375 49.6796875 C-77.06540771 49.07366699 -76.44722168 48.46764648 -75.81030273 47.84326172 C-73.37177877 45.36034116 -71.10913196 42.74606849 -68.8671875 40.0859375 C-65.65306414 36.49526412 -62.17862278 33.15985673 -58.75292969 29.77246094 C-55.93229197 26.97128708 -53.18889295 24.16713205 -50.625 21.125 C-37.87461747 6.34974282 -21.11190489 -11.95041657 0 0 Z " fill="#6445F3" transform="translate(527,65)"/>
<path d="M0 0 C-1.4841373 3.48654476 -3.46214052 5.64191072 -6.1875 8.25 C-9.0026799 10.99825803 -11.71037344 13.74572999 -14.25 16.75 C-17.48338988 20.52732462 -20.96701069 24.00681902 -24.5 27.5 C-27.94938722 30.91069527 -31.36119966 34.2962156 -34.5 38 C-38.1645653 42.32418706 -42.21520866 46.24082291 -46.2421875 50.22265625 C-49.10574117 53.06641577 -51.8887719 55.91875084 -54.5 59 C-58.1645653 63.32418706 -62.21520866 67.24082291 -66.2421875 71.22265625 C-69.10574117 74.06641577 -71.8887719 76.91875084 -74.5 80 C-78.16479915 84.324463 -82.21459309 88.24306072 -86.24438477 92.22265625 C-89.10298954 95.05864223 -91.85855767 97.90264433 -94.4375 101 C-98.21260825 105.46579221 -102.57652528 109.28439522 -106.88427734 113.22265625 C-110.54437933 116.58889569 -113.9131368 120.01908542 -117.09765625 123.84375 C-119.76416052 126.8661532 -122.63306768 129.66877894 -125.5 132.5 C-128.94959561 135.91044509 -132.36122632 139.29624706 -135.5 143 C-139.16389741 147.32339894 -143.21371646 151.23937981 -147.23999023 155.22045898 C-150.70124746 158.65776633 -153.96718222 162.17930533 -157.12109375 165.90234375 C-160.15006779 169.28396341 -163.40198574 172.44389615 -166.65063477 175.61352539 C-169.11198165 178.03270787 -171.40796773 180.45929614 -173.5546875 183.1640625 C-175.91826252 185.90520542 -177.87952355 187.47522902 -181 189.25 C-181.825 189.72953125 -182.65 190.2090625 -183.5 190.703125 C-188.69915329 193.40018577 -192.51178008 194.29459752 -198.4375 194.3125 C-199.71496094 194.32925781 -200.99242187 194.34601563 -202.30859375 194.36328125 C-209.08226538 193.69666595 -212.79990107 190.58471719 -217.4375 185.8125 C-217.91920654 185.31983643 -218.40091309 184.82717285 -218.8972168 184.31958008 C-222.0381987 181.08157943 -225.00276436 177.72556728 -227.92578125 174.29296875 C-230.83456246 171.07742342 -233.91863803 168.04934782 -237 165 C-241.21011278 160.83353795 -245.27241218 156.6471459 -249.09765625 152.12109375 C-252.32501185 148.52262539 -255.80624973 145.1747647 -259.24243164 141.77709961 C-262.68388165 138.35944185 -265.92608651 134.85721791 -269.0625 131.15625 C-271.76031907 128.15383845 -274.63061116 125.33758725 -277.5 122.5 C-281.68397381 118.35807916 -285.78193515 114.20541806 -289.5703125 109.69140625 C-290.50698735 108.5832636 -291.48085485 107.50529854 -292.4921875 106.46484375 C-296.34655966 102.38182239 -297 99.46243141 -297 94 C-295.19900061 89.33858982 -292.20470839 87.51089721 -288 85 C-285.26374241 83.89451021 -282.47028257 83.06672412 -279.63647461 82.2487793 C-278.39918893 81.87833889 -278.39918893 81.87833889 -277.13690758 81.50041485 C-274.39481416 80.68205174 -271.64868867 79.87818779 -268.90234375 79.07421875 C-266.94571078 78.4933031 -264.98935172 77.9114642 -263.0332489 77.32876587 C-257.76568683 75.76226452 -252.49457087 74.20805365 -247.22272491 72.65604019 C-241.7255848 71.03538977 -236.23180304 69.40344026 -230.73779297 67.7722168 C-222.9105641 65.4491606 -215.08237052 63.12941184 -207.25289154 60.81395054 C-194.38373915 57.00764623 -181.52287316 53.17444083 -168.66796875 49.3203125 C-166.92869146 48.79909816 -165.18940828 48.27790349 -163.45011902 47.75672913 C-156.97189832 45.81529748 -150.49383163 43.87335414 -144.0163269 41.92953491 C-128.3179901 37.22001061 -112.60463695 32.58197887 -96.8359375 28.11328125 C-84.20536596 24.53310113 -71.62235813 20.8130081 -59.0625 16.9921875 C-58.23497601 16.74052259 -57.40745201 16.48885769 -56.55485153 16.22956657 C-49.83388471 14.18447257 -43.1148473 12.13307014 -36.39660645 10.07904053 C-31.29474193 8.51922044 -26.1919296 6.96258885 -21.08761597 5.41080093 C-18.73392521 4.69382936 -16.38173008 3.97209371 -14.02954102 3.25021362 C-12.60701306 2.81742672 -11.18440993 2.38488678 -9.76171875 1.95263672 C-8.52381592 1.57420624 -7.28591309 1.19577576 -6.01049805 0.80587769 C-3 0 -3 0 0 0 Z " fill="#6445F3" transform="translate(511,464)"/>
<path d="M0 0 C3.45606428 0.07732842 6.91219969 0.07582571 10.36899328 0.08412099 C16.16808345 0.10885249 21.96455684 0.18470794 27.76257849 0.29736257 C35.90370271 0.45539616 44.04345149 0.51530459 52.1858747 0.55810082 C57.86922099 0.5917434 63.55236714 0.64930099 69.23546886 0.71103907 C70.60158771 0.72574073 71.96771408 0.73976028 73.33384705 0.75308609 C77.8318132 0.79781615 82.32869193 0.87022705 86.82605505 0.95556569 C88.49563772 0.97237889 88.49563772 0.97237889 90.19894934 0.98953176 C102.54368496 1.2741378 113.61331799 3.47547123 122.50134802 12.52221608 C129.54116234 20.8596233 132.25623622 29.64997302 131.84509802 40.50659108 C131.08802313 47.80290031 128.7431779 51.83448994 123.38025427 56.77612233 C120.92960857 59.08687916 118.83281672 61.63435392 116.69666052 64.23315358 C116.31251989 64.65725514 115.92837927 65.08135671 115.53259802 65.51830983 C115.20259802 65.51830983 114.87259802 65.51830983 114.53259802 65.51830983 C114.20259802 58.91830983 113.87259802 52.31830983 113.53259802 45.51830983 C112.87259802 45.51830983 112.21259802 45.51830983 111.53259802 45.51830983 C111.20259802 44.50768483 110.87259802 43.49705983 110.53259802 42.45580983 C108.76077409 38.23595863 105.89688534 35.90548856 102.37244177 33.09643483 C100.53259802 31.51830983 100.53259802 31.51830983 98.53259802 28.51830983 C90.72666686 25.08764715 82.35520543 25.07603543 73.98303747 25.08593678 C72.02016035 25.07064931 72.02016035 25.07064931 70.01762915 25.055053 C66.46465204 25.02770844 62.91183492 25.01822956 59.35876632 25.01219893 C55.63248253 25.00275587 51.90631552 24.97654818 48.18010473 24.9521935 C41.13980018 24.90868676 34.09951849 24.880043 27.05912083 24.85687011 C19.03718513 24.82973308 11.01536785 24.78582718 2.99351704 24.74058139 C-13.49339574 24.64796207 -29.9803298 24.57617794 -46.46740198 24.51830983 C-46.74519495 25.12062428 -47.02298792 25.72293874 -47.30919886 26.34350514 C-48.98517309 29.49054951 -51.45139609 31.79131178 -53.96740198 34.26830983 C-54.46626917 34.77491139 -54.96513636 35.28151296 -55.47912073 35.80346608 C-59.21399059 39.51830983 -59.21399059 39.51830983 -61.46740198 39.51830983 C-61.46740198 40.17830983 -61.46740198 40.83830983 -61.46740198 41.51830983 C-62.12740198 41.18830983 -62.78740198 40.85830983 -63.46740198 40.51830983 C-59.79157301 36.18059526 -56.01664404 32.01198768 -51.96740198 28.01830983 C-49.28414105 25.3710055 -46.71483298 22.7073404 -44.27990198 19.83080983 C-43.73139582 19.22949742 -43.18288965 18.62818501 -42.61776209 18.00865102 C-40.94436348 16.07068097 -39.5081353 14.16663909 -38.03481531 12.08644032 C-27.79803121 -1.20834733 -15.75813823 -0.4183389 0 0 Z " fill="#18ADC8" transform="translate(556.4674019813538,461.48169016838074)"/>
<path d="M0 0 C1.27917107 2.55834213 0.82228287 3.76040436 0.375 6.5625 C-0.1719653 11.28691277 0.47686171 14.60027592 2.2109375 18.9921875 C2.99062936 20.9761559 3.52529128 22.92431287 4 25 C4.66 25 5.32 25 6 25 C8.06112687 27.42512279 9.92917954 29.96890024 11.83203125 32.51953125 C16.35867893 37.69866868 22.08392299 39.72906218 28.82394218 40.19537735 C32.34070773 40.28616257 35.85290506 40.31279661 39.37084961 40.31884766 C40.72162469 40.32815693 42.07239406 40.33832708 43.42315674 40.34928894 C47.07344021 40.37649048 50.72368529 40.39170897 54.37404323 40.40471697 C58.1950905 40.42039081 62.01605991 40.44716739 65.83705139 40.4727478 C73.0651878 40.5194605 80.29333899 40.55624085 87.52154881 40.58942068 C95.75376718 40.62769525 103.98590719 40.67709137 112.21805942 40.72740483 C129.14531619 40.83061295 146.07261839 40.91990937 163 41 C162.1348024 41.98308136 161.2696048 42.96616272 160.37818909 43.97903442 C158.11640693 46.596413 156.10218308 49.26659089 154.15879822 52.12619019 C149.16769526 58.96350242 144.40479887 64.03233803 135.76882935 65.41656494 C128.81239523 66.02702517 121.86683352 65.90715732 114.89561963 65.68816614 C111.37377334 65.59440616 107.8517444 65.59198245 104.32884216 65.57858276 C98.42440295 65.5438364 92.52333403 65.45162647 86.62036133 65.31689453 C78.31440186 65.12737117 70.00971995 65.04085356 61.70197976 64.97563004 C49.94060487 64.87759316 38.17932479 64.73036138 26.42016602 64.48095703 C25.27559937 64.46301086 24.13103271 64.4450647 22.95178223 64.42657471 C15.47886974 64.24526306 8.5711378 63.61239946 1.8125 60.125 C1.20019531 59.81820312 0.58789062 59.51140625 -0.04296875 59.1953125 C-8.78581599 53.85536987 -14.07304967 45.16607739 -16.56640625 35.33203125 C-17.89561776 28.18302881 -17.00655423 21.66116431 -14 15 C-11.93444388 12.03776835 -9.56503721 9.53369256 -7 7 C-6.33613281 6.32324219 -5.67226562 5.64648438 -4.98828125 4.94921875 C-3.34134609 3.28223976 -1.67975058 1.63379996 0 0 Z " fill="#18AEC9" transform="translate(155,193)"/>
<path d="M0 0 C4.3712007 0.00512241 8.74239368 0.00035287 13.11359477 -0.00277233 C20.43006243 -0.00638746 27.74648939 -0.001671 35.06295085 0.00790882 C43.52311872 0.0188581 51.98319066 0.01521141 60.44335634 0.00425601 C67.73289065 -0.00480475 75.02239605 -0.00611019 82.31193417 -0.00086665 C86.65560742 0.00225086 90.99923541 0.00266696 95.34290576 -0.00393963 C99.41015422 -0.00969719 103.47727763 -0.00574573 107.54451251 0.00584888 C109.03852704 0.00850106 110.53255204 0.00772093 112.02656245 0.00332355 C114.05891625 -0.0021094 116.09129298 0.00589898 118.12363505 0.01468372 C119.26226025 0.01543777 120.40088544 0.01619183 121.57401443 0.01696873 C124.23458171 0.26865101 124.23458171 0.26865101 126.23458171 2.26865101 C123.26458171 3.25865101 120.29458171 4.24865101 117.23458171 5.26865101 C117.23458171 4.27865101 117.23458171 3.28865101 117.23458171 2.26865101 C96.18145349 2.37583783 75.12836166 2.48858984 54.07529902 2.60799026 C44.30028042 2.6632982 34.52525817 2.71677624 24.75020671 2.76596546 C16.23154003 2.80883703 7.71289997 2.85512257 -0.80572557 2.90552956 C-5.3173947 2.93210651 -9.82905863 2.95695902 -14.34075856 2.97772503 C-18.58585553 2.99731784 -22.83090197 3.02146958 -27.07595372 3.04914188 C-28.63521969 3.0584983 -30.19449674 3.06617864 -31.75377965 3.07207012 C-33.88065978 3.08035527 -36.00741805 3.09463863 -38.13425374 3.11043262 C-39.92068854 3.12011145 -39.92068854 3.12011145 -41.74321294 3.12998581 C-44.28817411 3.24675403 -46.33869642 3.56828077 -48.76541829 4.26865101 C-50.18076607 4.33321979 -51.59879519 4.35476139 -53.01541829 4.33115101 C-54.87166829 4.30021351 -54.87166829 4.30021351 -56.76541829 4.26865101 C-42.56899787 -4.35257797 -16.20773389 -0.02497434 0 0 Z " fill="#43AAD0" transform="translate(377.7654182910919,48.73134899139404)"/>
<path d="M0 0 C0 0.66 0 1.32 0 2 C-0.99 2.66 -1.98 3.32 -3 4 C77.19 4.495 77.19 4.495 159 5 C159 5.33 159 5.66 159 6 C151.07373758 7.29880922 143.13566385 7.13325379 135.12890625 7.11352539 C133.52183535 7.113243 131.91476431 7.11340226 130.30769348 7.1139679 C125.96325304 7.11425386 121.61884043 7.10838958 117.27440643 7.10139394 C112.72737266 7.09512698 108.1803382 7.09455396 103.63330078 7.09336853 C95.03102262 7.09026505 86.42875723 7.08206495 77.82648468 7.07201904 C68.0296312 7.06082733 58.2327771 7.05533975 48.43591881 7.05032361 C28.29060542 7.0398815 8.14530352 7.02230114 -12 7 C-12 6.01 -12 5.02 -12 4 C-10.3767313 3.3291288 -8.75132422 2.66342971 -7.125 2 C-6.22007812 1.62875 -5.31515625 1.2575 -4.3828125 0.875 C-2 0 -2 0 0 0 Z " fill="#3A89B2" transform="translate(336,664)"/>
<path d="M0 0 C20.56608928 -0.04666815 41.13216987 -0.08196335 61.69830132 -0.10362434 C71.24696495 -0.1139481 80.79559573 -0.12802936 90.34423828 -0.15087891 C98.66436443 -0.17077921 106.9844668 -0.18370843 115.30461609 -0.18817699 C119.71230203 -0.19079008 124.1199199 -0.19695466 128.52758408 -0.21146011 C132.6725337 -0.22499102 136.81738695 -0.2292318 140.96235657 -0.22621536 C142.48700102 -0.22676755 144.01164855 -0.23077167 145.53627396 -0.23841095 C147.61136938 -0.24830216 149.68609673 -0.24599054 151.76119995 -0.24050903 C152.9245027 -0.24235262 154.08780544 -0.24419621 155.28635979 -0.24609566 C158 0 158 0 160 2 C158.02 2.66 156.04 3.32 154 4 C154.33 3.01 154.66 2.02 155 1 C103.85 1 52.7 1 0 1 C0 0.67 0 0.34 0 0 Z " fill="#316793" transform="translate(344,49)"/>
<path d="M0 0 C0.66 0.33 1.32 0.66 2 1 C-3.19494365 7.13284616 -8.72631259 12.84863969 -14.4375 18.5 C-15.26443359 19.32242188 -16.09136719 20.14484375 -16.94335938 20.9921875 C-18.95994959 22.99712113 -20.97885236 24.99966253 -23 27 C-23.66 26.67 -24.32 26.34 -25 26 C-16.90196051 17.08486103 -8.57832717 8.45380307 0 0 Z " fill="#563ED3" transform="translate(495,67)"/>
<path d="M0 0 C0.66 0.33 1.32 0.66 2 1 C-4.1009299 7.92617646 -10.41304475 14.536808 -17 21 C-17.99 20.67 -18.98 20.34 -20 20 C-13.4 13.4 -6.8 6.8 0 0 Z " fill="#41A1C9" transform="translate(262,81)"/>
<path d="M0 0 C7.83951664 0.38044853 14.67162196 1.83984709 22.0625 4.4375 C23.46532227 4.90639648 23.46532227 4.90639648 24.89648438 5.38476562 C31.71768544 7.71768544 31.71768544 7.71768544 34 10 C30.37030282 9.31115236 26.81634398 8.46387675 23.25 7.5 C22.28578125 7.2421875 21.3215625 6.984375 20.328125 6.71875 C18 6 18 6 17 5 C14.14772981 4.43655256 11.30368392 3.91865055 8.4375 3.4375 C7.63119141 3.29892578 6.82488281 3.16035156 5.99414062 3.01757812 C3.99670189 2.67482237 1.99842528 2.33695612 0 2 C0 1.34 0 0.68 0 0 Z " fill="#863FB2" transform="translate(491,271)"/>
<path d="M0 0 C0.66 0.33 1.32 0.66 2 1 C-7.75624462 12.416882 -7.75624462 12.416882 -12 16 C-12.66 16 -13.32 16 -14 16 C-14 16.66 -14 17.32 -14 18 C-14.66 17.67 -15.32 17.34 -16 17 C-10.94647258 11.03651266 -5.58288259 5.46894621 0 0 Z " fill="#3F9FC6" transform="translate(509,485)"/>
<path d="M0 0 C-1.53218685 3.63061667 -3.7183144 5.9863773 -6.5 8.75 C-7.69109375 9.94882812 -7.69109375 9.94882812 -8.90625 11.171875 C-11 13 -11 13 -13 13 C-13 13.66 -13 14.32 -13 15 C-13.66 15 -14.32 15 -15 15 C-13.387672 10.96918 -10.53765404 8.24055863 -7.5 5.25 C-7.00113281 4.74339844 -6.50226563 4.23679687 -5.98828125 3.71484375 C-2.25341139 0 -2.25341139 0 0 0 Z " fill="#41A0C7" transform="translate(408,592)"/>
<path d="M0 0 C0 3 0 3 -2.625 5.91796875 C-3.74249406 7.01550756 -4.86785643 8.10507895 -6 9.1875 C-6.57234375 9.74630859 -7.1446875 10.30511719 -7.734375 10.88085938 C-9.14962788 12.26073093 -10.57397155 13.63126734 -12 15 C-12.66 14.67 -13.32 14.34 -14 14 C-9.67106815 8.81580806 -5.23435005 4.27293882 0 0 Z " fill="#533CCB" transform="translate(408,158)"/>
<path d="M0 0 C0 0.66 0 1.32 0 2 C-0.99 2.66 -1.98 3.32 -3 4 C0.3 4.33 3.6 4.66 7 5 C7 5.33 7 5.66 7 6 C1.06 6 -4.88 6 -11 6 C-8.45731621 2.18597432 -4.72779558 0 0 0 Z " fill="#44B0D5" transform="translate(336,664)"/>
<path d="M0 0 C0.33 0.99 0.66 1.98 1 3 C-1.97 5.97 -4.94 8.94 -8 12 C-8.99 11.67 -9.98 11.34 -11 11 C-7.37 7.37 -3.74 3.74 0 0 Z " fill="#1C8FB0" transform="translate(153,195)"/>
<path d="M0 0 C0.66 0.33 1.32 0.66 2 1 C0.625 3 0.625 3 -1 5 C-1.66 5 -2.32 5 -3 5 C-3 8.3 -3 11.6 -3 15 C-5.28350049 11.57474926 -5.15366281 9.93057288 -4.55859375 5.94140625 C-3.76065949 3.16816621 -2.24455824 1.73772251 0 0 Z " fill="#4F3AC1" transform="translate(219,551)"/>
<path d="M0 0 C0.33 0.99 0.66 1.98 1 3 C3.64 2.67 6.28 2.34 9 2 C5.99559979 4.00293347 4.29006055 4.49271626 0.8125 5.125 C-0.08855469 5.29257813 -0.98960937 5.46015625 -1.91796875 5.6328125 C-2.60503906 5.75398437 -3.29210937 5.87515625 -4 6 C-1.125 1.125 -1.125 1.125 0 0 Z " fill="#4837B2" transform="translate(319,250)"/>
<path d="M0 0 C3.63 0.33 7.26 0.66 11 1 C11 1.66 11 2.32 11 3 C11.99 3.33 12.98 3.66 14 4 C4.58997722 3.03644647 4.58997722 3.03644647 0 2 C0 1.34 0 0.68 0 0 Z " fill="#A147CC" transform="translate(491,271)"/>
<path d="M0 0 C0 0.66 0 1.32 0 2 C-1.6875 3.6875 -1.6875 3.6875 -4 5 C-6.75 4.6875 -6.75 4.6875 -9 4 C-3 0 -3 0 0 0 Z " fill="#41A2C9" transform="translate(336,664)"/>
</svg>
