<?xml version="1.0" encoding="UTF-8"?>
<svg version="1.1" xmlns="http://www.w3.org/2000/svg" width="240" height="240">
<path d="M0 0 C0.66 0 1.32 0 2 0 C2.433125 0.7425 2.86625 1.485 3.3125 2.25 C5.29716877 5.48427503 6.77103837 6.97826336 10 9 C13.06105333 9.56913143 16.06775762 9.5233214 19.17382812 9.48242188 C20.09001923 9.48633438 21.00621033 9.49024689 21.95016479 9.49427795 C23.93680637 9.50024812 25.92349171 9.49709167 27.91011047 9.4858551 C31.06484728 9.46856587 34.21866963 9.4761188 37.37341309 9.4901123 C45.21460805 9.5197417 53.05562842 9.50662815 60.89685059 9.49493408 C67.51532414 9.48669115 74.1333985 9.49484446 80.7518158 9.52406311 C83.84102987 9.53110141 86.92951982 9.51454365 90.01867676 9.49694824 C103.82420198 9.49885188 116.33747192 10.16473703 127 20 C127.61875 20.55171875 128.2375 21.1034375 128.875 21.671875 C133.66256168 26.1891711 137.64509166 31.24556134 141.65161133 36.44335938 C144.9763814 40.74513274 148.43263667 44.89784981 152 49 C156.17087789 53.81276107 160.23495385 58.69343971 164.1875 63.6875 C164.65736328 64.27595703 165.12722656 64.86441406 165.61132812 65.47070312 C168.88006141 69.63846022 170.13882356 72.42117403 170.0625 77.6875 C170.05347656 78.49574219 170.04445312 79.30398437 170.03515625 80.13671875 C170.01775391 81.05904297 170.01775391 81.05904297 170 82 C169.34 82 168.68 82 168 82 C166.65668346 80.00669158 165.32405988 78.00615134 164 76 C160.10170755 73.40113837 156.81978855 73.70761339 152.296875 73.71289062 C151.40702408 73.70605759 150.51717316 73.69922455 149.60035706 73.69218445 C147.66553274 73.67858523 145.73067236 73.66953916 143.79580688 73.66447449 C140.72596772 73.65618511 137.65642601 73.63567503 134.58666992 73.61193848 C128.05782423 73.56366317 121.52894835 73.53081106 115 73.5 C107.45982732 73.46424876 99.91979767 73.42207846 92.37976074 73.36405945 C89.36936473 73.34412652 86.35908075 73.33569563 83.34863281 73.32775879 C66.63767067 73.23639836 52.94296171 72.23876684 40.19921875 60.2734375 C36.64502749 56.59930017 33.46421931 52.66691468 30.30566406 48.65136719 C27.77571029 45.4515528 25.19678878 42.29120456 22.625 39.125 C22.07424805 38.444375 21.52349609 37.76375 20.95605469 37.0625 C17.83183846 33.21167929 14.66013678 29.41099181 11.42260742 25.6550293 C-0.68512195 11.5691708 -0.68512195 11.5691708 -0.17578125 1.90625 C-0.11777344 1.2771875 -0.05976562 0.648125 0 0 Z " fill="#D155F7" transform="translate(37,80)"/>
<path d="M0 0 C1.25793114 0.0245929 1.25793114 0.0245929 2.54127502 0.04968262 C3.41159866 0.04964233 4.2819223 0.04960205 5.17861938 0.04956055 C7.01694468 0.05491532 8.85526941 0.07249642 10.69337463 0.10144043 C13.50081206 0.1432373 16.30584502 0.14251319 19.11354065 0.13562012 C20.90196871 0.14611525 22.69038444 0.15905509 24.47877502 0.17468262 C25.31537155 0.17488403 26.15196808 0.17508545 27.01391602 0.17529297 C31.65817703 0.26912782 34.83785288 0.58876768 38.57643127 3.64343262 C41.5174333 8.74116946 41.98316786 11.96839272 40.57643127 17.64343262 C39.00464867 20.14533646 37.08913882 22.23851458 35.07643127 24.39343262 C33.97250687 25.62555681 32.86965128 26.8586394 31.76783752 28.09265137 C31.22272522 28.69512695 30.67761292 29.29760254 30.11598206 29.91833496 C28.00346868 32.28544874 26.00578199 34.73690533 24.01393127 37.20593262 C19.76968022 42.43021983 15.44104075 47.57712341 11.06861877 52.69421387 C9.64815232 54.37517339 8.24462292 56.07169689 6.89674377 57.81140137 C1.10443286 65.22359584 -7.38884798 69.45960575 -16.42356873 71.64343262 C-20.44267396 72.02438899 -24.4246131 71.9948271 -28.45872498 71.93640137 C-30.13762062 71.9300341 -30.13762062 71.9300341 -31.85043335 71.92353821 C-35.39589855 71.90685793 -38.94077775 71.86922494 -42.48606873 71.83093262 C-44.90207609 71.81587204 -47.31809244 71.80218605 -49.7341156 71.78991699 C-55.63079709 71.75698935 -61.52714102 71.70689696 -67.42356873 71.64343262 C-67.42356873 70.98343262 -67.42356873 70.32343262 -67.42356873 69.64343262 C-66.61919373 69.14843262 -65.81481873 68.65343262 -64.98606873 68.14343262 C-57.23274945 63.21115674 -51.64920849 54.75187198 -45.93919373 47.69421387 C-42.99431718 44.12286513 -39.96633674 40.6313447 -36.92356873 37.14343262 C-32.41531214 31.97196831 -28.00364001 26.74114541 -23.68528748 21.40905762 C-20.58102239 17.6131687 -17.40789206 13.87730575 -14.22776794 10.14489746 C-12.24916359 7.81888784 -10.40835396 5.61817871 -8.82884216 2.99645996 C-5.77749901 0.01139649 -4.13373963 0.04903965 0 0 Z " fill="#4BC7EB" transform="translate(162.42356872558594,155.3565673828125)"/>
<path d="M0 0 C1.02075623 0.00007553 2.04151245 0.00015106 3.09320068 0.00022888 C4.18811829 0.00539017 5.28303589 0.01055145 6.41113281 0.01586914 C8.10064056 0.01799156 8.10064056 0.01799156 9.82427979 0.02015686 C13.42096617 0.0257534 17.01759025 0.03830529 20.61425781 0.05102539 C23.053059 0.05604084 25.49186116 0.06060367 27.93066406 0.06469727 C33.90854989 0.07572169 39.8863994 0.09245641 45.86425781 0.11352539 C45.86425781 0.77352539 45.86425781 1.43352539 45.86425781 2.11352539 C45.05988281 2.60852539 44.25550781 3.10352539 43.42675781 3.61352539 C35.55983119 8.61807261 29.89440809 17.24664399 24.10644531 24.40649414 C21.96941999 26.9865613 19.75690036 29.46067024 17.48925781 31.92602539 C13.39237621 36.41546533 9.67289104 41.12948775 5.95727539 45.93212891 C2.56817641 50.28648886 -0.9956295 54.41504853 -4.77246094 58.44165039 C-7.16577195 60.94318398 -7.16577195 60.94318398 -8.47753906 63.60205078 C-10.7319303 67.31421577 -12.7694286 70.45599106 -17.15060425 71.67340088 C-22.25587987 72.40577909 -27.3558453 72.31936009 -32.49951172 72.14257812 C-35.2621014 72.05098032 -38.01632002 72.04003178 -40.78027344 72.04125977 C-42.54727251 72.01668558 -44.31421523 71.98754449 -46.08105469 71.95336914 C-46.89994171 71.94780502 -47.71882874 71.94224091 -48.56253052 71.93650818 C-54.39353774 71.69636418 -57.05985464 70.31337158 -61.13574219 66.11352539 C-63.16243482 62.06014012 -63.28062306 58.48539892 -62.13574219 54.11352539 C-59.28082056 49.53946781 -55.37902225 45.69342323 -51.69140625 41.7902832 C-49.53646452 39.46759962 -47.55463054 37.02235704 -45.57324219 34.55102539 C-41.34500274 29.34821896 -37.04454139 24.21285727 -32.67871094 19.12524414 C-31.19914351 17.37294539 -29.747624 15.59460018 -28.37402344 13.75805664 C-21.91314439 5.34426704 -10.58362443 -0.02619709 0 0 Z " fill="#4BC6EA" transform="translate(103.1357421875,15.886474609375)"/>
<path d="M0 0 C0 2 0 2 -1.9375 4 C-2.39511719 4.44085938 -2.85273438 4.88171875 -3.32421875 5.3359375 C-9.5428644 11.51109612 -15.1173046 18.2926055 -20.62890625 25.09375 C-23.15856724 28.19435589 -25.72597974 31.25933949 -28.3125 34.3125 C-28.76834473 34.85076416 -29.22418945 35.38902832 -29.69384766 35.94360352 C-32.15759949 38.8465459 -34.63349244 41.73856163 -37.12109375 44.62109375 C-38.16418067 45.83062727 -39.20715044 47.04026182 -40.25 48.25 C-40.75499023 48.83531494 -41.25998047 49.42062988 -41.78027344 50.02368164 C-45.20553865 54.01512038 -48.47136641 58.09609906 -51.59765625 62.328125 C-53.81929927 64.97676905 -55.79057946 65.94973907 -59.125 66.75 C-65.41172134 65.53321522 -68.13839968 60.84809318 -72 56 C-72.75667969 55.08863281 -73.51335937 54.17726562 -74.29296875 53.23828125 C-75.80180981 51.41780349 -77.29676788 49.58572641 -78.77734375 47.7421875 C-80.27998118 45.88831847 -81.81512169 44.0604016 -83.37890625 42.2578125 C-84.49072266 40.95457031 -84.49072266 40.95457031 -85.625 39.625 C-86.63433594 38.46871094 -86.63433594 38.46871094 -87.6640625 37.2890625 C-89 35 -89 35 -89.2734375 32.4609375 C-85.59808764 25.35826753 -70.24940211 22.92945258 -62.765625 20.4296875 C-61.19848747 19.90252956 -59.6314936 19.37494439 -58.06463623 18.84695435 C-53.96452422 17.46637951 -49.86277347 16.09074407 -45.76055908 14.71643066 C-39.1816308 12.51145886 -32.60522061 10.29898997 -26.028862 8.08636856 C-23.73999552 7.3170797 -21.45041269 6.54995522 -19.16070557 5.78317261 C-17.75458276 5.31106016 -16.3484744 4.83890466 -14.94238281 4.36669922 C-13.71932434 3.95684784 -12.49626587 3.54699646 -11.23614502 3.12472534 C-9.22115128 2.42441231 -7.22181594 1.67474061 -5.25360107 0.8520813 C-3 0 -3 0 0 0 Z " fill="#6445F2" transform="translate(152,156)"/>
<path d="M0 0 C2.16796875 2.14453125 2.16796875 2.14453125 4.1875 4.8125 C4.94804687 5.79089844 5.70859375 6.76929688 6.4921875 7.77734375 C6.89405273 8.29925293 7.29591797 8.82116211 7.70996094 9.35888672 C9.99543248 12.26633178 12.40958648 15.06453943 14.8125 17.875 C23.89991044 28.53291537 23.89991044 28.53291537 24.5625 31.625 C24 34 24 34 22.10644531 35.421875 C17.7905293 37.61443089 13.32043345 39.09435606 8.734375 40.625 C7.7196109 40.96878189 6.7048468 41.31256378 5.65933228 41.66676331 C2.35810597 42.78351478 -0.94586915 43.89187498 -4.25 45 C-6.51366166 45.76378958 -8.77717023 46.52803304 -11.04052734 47.29272461 C-17.69077102 49.53719748 -24.34474583 51.7704339 -31 54 C-31.94887085 54.31801575 -32.8977417 54.63603149 -33.87536621 54.96368408 C-43.91120211 58.32636956 -53.95181546 61.67437788 -64 65 C-62.18415561 61.14023165 -59.72034157 58.13731766 -56.9375 54.9375 C-55.93412516 53.76889043 -54.93153143 52.59960978 -53.9296875 51.4296875 C-53.43178711 50.84928711 -52.93388672 50.26888672 -52.42089844 49.67089844 C-50.43117984 47.33109877 -48.49579403 44.94902047 -46.5625 42.5625 C-42.15203526 37.14572601 -37.60905849 31.85014793 -33.0546875 26.5546875 C-30.10865599 23.12920013 -27.17370899 19.69455855 -24.25 16.25 C-23.79689453 15.71802002 -23.34378906 15.18604004 -22.87695312 14.63793945 C-19.38273597 10.51310538 -16.07534823 6.26440038 -12.8515625 1.92578125 C-8.69695337 -2.39536284 -5.30690355 -2.56558913 0 0 Z " fill="#6445F2" transform="translate(157,22)"/>
<path d="M0 0 C0.08636719 0.60328125 0.17273437 1.2065625 0.26171875 1.828125 C0.40222656 2.62734375 0.54273438 3.4265625 0.6875 4.25 C0.81511719 5.03890625 0.94273438 5.8278125 1.07421875 6.640625 C2.40753739 10.03861848 3.8821327 11.0793138 7 13 C10.23230462 13.54294707 13.40609335 13.46622557 16.67578125 13.390625 C17.6009404 13.38496521 18.52609955 13.37930542 19.47929382 13.37347412 C22.42422986 13.3511448 25.36793386 13.30095486 28.3125 13.25 C30.31313343 13.22993054 32.31378599 13.21168055 34.31445312 13.1953125 C39.21010764 13.15129125 44.10484518 13.08228747 49 13 C48.02180976 14.31322788 47.0424189 15.62556152 46.0625 16.9375 C45.51722656 17.66839844 44.97195312 18.39929688 44.41015625 19.15234375 C43 21 43 21 42 22 C36.39128839 22.2931447 30.77994622 22.31414668 25.16430664 22.35009766 C23.27192863 22.36662215 21.37961213 22.39386576 19.48754883 22.43212891 C16.75829706 22.48705304 14.0305122 22.50879852 11.30078125 22.5234375 C10.45993484 22.54610687 9.61908844 22.56877625 8.75276184 22.59213257 C4.52659433 22.57702281 1.83019996 22.30141006 -1.51879883 19.59228516 C-5.37059063 15.56804769 -5.32813165 12.88786784 -5.296875 7.48828125 C-4.96598335 4.71488675 -3.44855754 0 0 0 Z " fill="#18ABC6" transform="translate(46,65)"/>
<path d="M0 0 C0.82829819 0.03187912 1.65659637 0.06375824 2.50999451 0.09660339 C3.37748825 0.10080795 4.24498199 0.10501251 5.13876343 0.10934448 C6.9653284 0.1257506 8.79181045 0.16134331 10.61766052 0.2150116 C13.40773086 0.29568892 16.19347377 0.31747237 18.98460388 0.32902527 C20.76394899 0.35228134 22.54325441 0.37886162 24.32249451 0.40910339 C25.15281693 0.41871597 25.98313934 0.42832855 26.83862305 0.43823242 C31.44931909 0.58931751 34.63425036 0.96587064 38.34983826 3.98332214 C40.521914 7.74825342 41.34983826 10.25433474 41.34983826 14.60832214 C40.16699537 18.60041689 38.49359621 20.32321926 35.34983826 22.98332214 C35.25186951 22.29625183 35.15390076 21.60918152 35.05296326 20.90129089 C34.90343201 20.00023621 34.75390076 19.09918152 34.59983826 18.17082214 C34.46061951 17.27750183 34.32140076 16.38418152 34.17796326 15.46379089 C33.09802296 12.22906405 32.36170169 11.61166855 29.34983826 9.98332214 C26.16206401 9.50582264 22.99088564 9.49450878 19.77171326 9.47160339 C18.84513916 9.45365219 17.91856506 9.43570099 16.96391296 9.41720581 C14.00926746 9.36309513 11.05478357 9.32920457 8.09983826 9.29582214 C6.09460743 9.26264975 4.08939793 9.22816016 2.08421326 9.19230652 C-2.82712848 9.10736812 -7.73842222 9.04056042 -12.65016174 8.98332214 C-9.30327249 3.17521043 -6.9192771 0.08010181 0 0 Z " fill="#18ADC8" transform="translate(162.65016174316406,155.0166778564453)"/>
<path d="M0 0 C1.04092804 0.02009628 2.08185608 0.04019257 3.15432739 0.06089783 C4.84499832 0.10145042 4.84499832 0.10145042 6.56982422 0.14282227 C7.72118866 0.16643326 8.8725531 0.19004425 10.05880737 0.21437073 C13.74749699 0.29113441 17.43598333 0.37510418 21.12451172 0.45922852 C23.62059542 0.51243647 26.11668913 0.56517694 28.61279297 0.61743164 C34.74182584 0.74676672 40.87070693 0.8820234 46.99951172 1.02172852 C43.71493553 3.21144598 42.78191362 3.26756754 38.97729492 3.2487793 C37.95646317 3.24862823 36.93563141 3.24847717 35.88386536 3.24832153 C34.78378647 3.23799896 33.68370758 3.22767639 32.55029297 3.21704102 C30.8586628 3.21279617 30.8586628 3.21279617 29.13285828 3.20846558 C25.52580214 3.19725767 21.91899299 3.17215175 18.31201172 3.14672852 C15.86865593 3.13669951 13.42529625 3.12757353 10.98193359 3.11938477 C4.98770849 3.09731634 -1.00637225 3.06383269 -7.00048828 3.02172852 C-7.00048828 2.36172852 -7.00048828 1.70172852 -7.00048828 1.02172852 C-4.47612185 -0.2404547 -2.8227824 -0.06136483 0 0 Z " fill="#3E96BE" transform="translate(102.00048828125,223.978271484375)"/>
<path d="M0 0 C0.66 0.33 1.32 0.66 2 1 C-1.86364295 5.48717034 -5.74790208 9.87675353 -10 14 C-10.99 13.67 -11.98 13.34 -13 13 C-11.39979779 11.20465118 -9.79509897 9.41370539 -8.1875 7.625 C-7.73568359 7.11710937 -7.28386719 6.60921875 -6.81835938 6.0859375 C-4.64829248 3.67827204 -2.71407209 1.80938139 0 0 Z " fill="#46B5DB" transform="translate(83,22)"/>
<path d="M0 0 C0 0.66 0 1.32 0 2 C-1.95927063 3.7143618 -3.95880212 5.38405168 -6 7 C-6 6.01 -6 5.02 -6 4 C-8.64 4.33 -11.28 4.66 -14 5 C-11.56585763 3.37723842 -9.68680554 2.38255208 -7 1.375 C-6.319375 1.11460937 -5.63875 0.85421875 -4.9375 0.5859375 C-3 0 -3 0 0 0 Z " fill="#563ED2" transform="translate(152,156)"/>
<path d="M0 0 C5.94 0 11.88 0 18 0 C18 0.66 18 1.32 18 2 C15.5 3.625 15.5 3.625 13 5 C12.67 4.01 12.34 3.02 12 2 C8.04 1.67 4.08 1.34 0 1 C0 0.67 0 0.34 0 0 Z " fill="#49BEE2" transform="translate(129,17)"/>
<path d="M0 0 C0.33 0 0.66 0 1 0 C1 2.97 1 5.94 1 9 C0.34 9 -0.32 9 -1 9 C-2.8597711 6.40759181 -4.57205423 3.85589153 -6 1 C-3.83125748 1.50603992 -2.00032373 1.99983813 0 3 C0 2.01 0 1.02 0 0 Z " fill="#B04CD6" transform="translate(206,153)"/>
<path d="M0 0 C-1 2 -1 2 -2.9609375 2.88671875 C-3.75757813 3.15097656 -4.55421875 3.41523437 -5.375 3.6875 C-6.16648438 3.95949219 -6.95796875 4.23148437 -7.7734375 4.51171875 C-10 5 -10 5 -13 4 C-12.34 4 -11.68 4 -11 4 C-11 3.34 -11 2.68 -11 2 C-9.54494642 1.47007308 -8.08581873 0.9513211 -6.625 0.4375 C-5.81289062 0.14746094 -5.00078125 -0.14257812 -4.1640625 -0.44140625 C-2 -1 -2 -1 0 0 Z " fill="#5C41E0" transform="translate(157,64)"/>
<path d="M0 0 C1.32 0.33 2.64 0.66 4 1 C2.35 2.65 0.7 4.3 -1 6 C-1.99 5.67 -2.98 5.34 -4 5 C-2.68 3.35 -1.36 1.7 0 0 Z " fill="#48BADF" transform="translate(149,164)"/>
<path d="M0 0 C0.33 0.99 0.66 1.98 1 3 C1.66 3.66 2.32 4.32 3 5 C0.69 5.66 -1.62 6.32 -4 7 C-2.79618552 4.50638429 -1.54571278 2.31856917 0 0 Z " fill="#543DCC" transform="translate(97,80)"/>
</svg>
